<?xml version="1.0" encoding="utf-8" ?><svg xmlns="http://www.w3.org/2000/svg" xmlns:xlink="http://www.w3.org/1999/xlink" width="914" height="711" viewBox="0 0 914 711"><path fill="#73655E" transform="scale(0.793403 0.793527)" d="M423.272 363.437L424.015 362.124C426.342 363.328 431.994 376.628 435.049 379.884C438.27 385.063 442.634 392.165 446.731 396.69C458.892 415.329 484.674 438.807 502.751 451.531C512.54 457.949 526.701 466.862 537.735 471.245C533.727 474.566 519.679 481.323 518.819 482.309C518.13 492.491 511.648 497.234 502.606 500.397C501.259 507.105 500.197 509.677 494.226 513.635C491.726 522.689 487.993 524.979 479.981 528.977C480.625 543.246 471.751 541.006 465.847 547.113C456.312 556.975 458.932 558.882 445.329 565.095C442.48 574.881 438.043 576.691 428.809 579.157C427.615 591.098 420.755 588.509 413.277 594.077C413.189 594.143 410.738 600.511 410.119 601.055C406.1 605.162 400.241 609.928 395.353 613.079C394.4 613.694 391.966 613.742 390.981 613.635C390.295 613.554 389.611 613.452 388.931 613.327C385.739 621.075 384.647 622.548 376.188 624.694C372.859 633.871 369.028 637.306 359.851 640.212C353.896 648.921 352.572 643.104 347.807 646.122C346.336 648.47 346.736 649.605 345.879 651.914C343.708 657.768 336.879 660.591 331.396 662.371C327.871 673.204 322.507 681.429 311.655 685.995C308 698.37 300.941 707.72 288.275 711.415C283.464 719.053 276.481 727.68 268.935 732.76L265.974 735.1C258.94 743.276 254.362 748.847 243.128 750.321C239.826 756.97 230.153 767.077 223.249 770.49C221.977 771.119 220.173 770.373 219.032 769.657L218.409 769.193C216.616 769.417 216.117 772.178 214.927 774.028C210.376 781.103 204.74 788.11 198.005 793.113C196.735 791.466 195.526 789.442 194.398 787.67C190.872 795.924 185.408 807.54 178.757 813.478L177.791 813.32C175.345 810.133 175.101 804.453 174.589 800.344C173.677 802.869 172.729 805.38 171.745 807.878C169.862 812.611 163.568 826.556 159.268 828.413L158.244 827.851C154.816 819.53 163.005 783.333 164.932 773.82C156.37 794.852 151.765 811.018 130.864 823.979C132.879 813.471 138.124 802.914 142.439 793.06C146.952 782.757 150.855 773.697 154.217 762.937C139.785 780.113 133.311 788.351 111.113 795.73C121.413 783.403 133.188 772.646 142.365 758.951C154.7 740.545 162.989 720.465 172.347 700.508C178.797 686.754 186.013 673.523 193.202 660.159C197.596 649.771 208.526 628.22 216.151 620.288C220.84 609.464 233.526 593.457 239.743 582.806C243.952 575.597 247.049 566.384 250.729 559.752C259.594 543.78 273.425 518.519 285.273 505.179C292.2 497.378 308.03 485.221 316.373 477.506C331.379 463.477 346.103 449.15 360.536 434.532C384.412 410.6 403.224 392.624 420.671 363.553L423.272 363.437Z"/><path fill="#605650" transform="scale(0.793403 0.793527)" d="M263.738 644.706C267.471 644.397 270.943 644.774 273.203 642.009C275.585 639.096 277.243 633.628 279.578 631.528L280.673 631.473C283.472 634.095 284.977 641.788 285.52 645.462C287.485 658.759 299.303 697.632 291.592 708.721L290.352 709.318L286.296 706.365L286.09 705.763C282.301 694.452 281.245 680.289 278.457 668.641C277.245 663.574 276.249 647.089 272.383 644.423C269.962 646.503 271.867 665.485 272.107 669.16C273.624 692.33 274.856 710.119 268.935 732.76L265.974 735.1C258.94 743.276 254.362 748.847 243.128 750.321C239.826 756.97 230.153 767.077 223.249 770.49C221.977 771.119 220.173 770.373 219.032 769.657L218.409 769.193C216.616 769.417 216.117 772.178 214.927 774.028C210.376 781.103 204.74 788.11 198.005 793.113C196.735 791.466 195.526 789.442 194.398 787.67C190.872 795.924 185.408 807.54 178.757 813.478L177.791 813.32C175.345 810.133 175.101 804.453 174.589 800.344C173.677 802.869 172.729 805.38 171.745 807.878C169.862 812.611 163.568 826.556 159.268 828.413L158.244 827.851C154.816 819.53 163.005 783.333 164.932 773.82C156.37 794.852 151.765 811.018 130.864 823.979C132.879 813.471 138.124 802.914 142.439 793.06C146.952 782.757 150.855 773.697 154.217 762.937C139.785 780.113 133.311 788.351 111.113 795.73C121.413 783.403 133.188 772.646 142.365 758.951C154.7 740.545 162.989 720.465 172.347 700.508C178.797 686.754 186.013 673.523 193.202 660.159C195.136 660.684 195.754 660.684 197.185 661.975C197.61 664.55 196.542 664.834 197.771 667.37L198.571 667.735C199.487 667.164 200.092 666.727 201.127 666.371C204.229 669.074 202.664 670.87 205.128 672.322C208.087 672.069 210.104 670.474 212.484 668.705C213.487 671.24 214.131 673.588 216.015 675.48C220.102 676.881 223.206 672.238 227.594 672.426C230.347 672.545 231.933 666.513 234.246 665.548C236.31 666.173 239.248 667.485 241.31 666.337C244.744 664.425 245.161 659.743 247.93 657.303C252.856 652.964 255.519 662.655 263.738 644.706Z"/><path fill="#73655E" transform="scale(0.793403 0.793527)" d="M243.128 750.321C253.985 731.71 255.286 692.368 258.216 669.989C260.462 688.995 260.732 708.269 262.059 727.325C262.293 730.682 263.544 732.86 265.974 735.1C258.94 743.276 254.362 748.847 243.128 750.321Z"/><path fill="#73655E" transform="scale(0.793403 0.793527)" d="M238.515 717.003C238.825 725.451 236.382 745.121 243.128 750.321C239.826 756.97 230.153 767.077 223.249 770.49C221.977 771.119 220.173 770.373 219.032 769.657C229.411 761.511 233.963 730.961 238.515 717.003Z"/><path fill="#DDD5BA" transform="scale(0.793403 0.793527)" d="M420.671 363.553L423.272 363.437C413.249 387.564 399.148 400.447 381.727 419.065C364.256 438.373 346.032 455.972 326.765 473.475C314.115 484.968 299.947 496.398 288.223 508.808C280.196 517.305 271.379 533.884 264.457 543.781C260.16 549.926 256.688 557.605 252.589 563.911C243.43 583.14 232.467 601.126 219.838 618.25C219.265 619.026 217.053 619.928 216.151 620.288C220.84 609.464 233.526 593.457 239.743 582.806C243.952 575.597 247.049 566.384 250.729 559.752C259.594 543.78 273.425 518.519 285.273 505.179C292.2 497.378 308.03 485.221 316.373 477.506C331.379 463.477 346.103 449.15 360.536 434.532C384.412 410.6 403.224 392.624 420.671 363.553Z"/><path fill="#605650" transform="scale(0.793403 0.793527)" d="M502.751 451.531C512.54 457.949 526.701 466.862 537.735 471.245C533.727 474.566 519.679 481.323 518.819 482.309C510.656 484.839 506.591 486.016 497.969 486.869C502.121 492.165 502.277 493.581 502.467 499.965C489.796 500.323 484.59 499.209 472.538 497.476C467.605 488.091 463.49 486.777 454.252 482.3L454.15 482.304C461.911 482.102 477.686 488.344 483.744 483.5C485.429 479.303 481.904 478.303 480.899 473.305C481.188 472.926 481.478 472.547 481.767 472.168C478.32 468.695 475.415 466.758 470.502 464.809C469.961 464.594 467.846 465.502 466.463 464.754C468.955 462.618 472.298 464.159 474.886 465.251C483.183 468.753 484.465 473.502 485.229 481.537C487.397 482.546 486.351 480.795 489.219 481.65C490.881 482.146 496.338 485.627 497.408 485.786C501.368 486.022 512.363 484.145 515.509 482.209C519.619 479.68 533.655 475.445 534.962 471.476C533.859 470.442 524.113 465.682 521.577 464.191C515.68 460.723 509.293 456.922 503.415 453.3C502.315 452.623 499.076 455.359 496.639 456.324C490.742 458.658 471.084 461.419 465.908 459.138C469.056 458.432 473.43 458.7 476.81 458.645C483.111 458.544 488.723 457.743 494.771 456.034C499.344 454.741 499.513 452.813 502.751 451.531Z"/><path fill="#605650" transform="scale(0.793403 0.793527)" d="M315.926 579.06C318.889 580.514 323.672 589.452 325.937 592.832C329.779 598.547 333.886 604.079 338.245 609.41C344.158 616.655 350.562 623.422 356.668 630.493C359.332 633.578 362.149 636.199 359.851 640.212C343.187 628.034 332.182 611.968 321.866 594.216C320.03 591.057 316.071 583.382 315.461 579.865L315.926 579.06Z"/><path fill="#605650" transform="scale(0.793403 0.793527)" d="M291.033 626.047C292.21 626.071 292.629 626.161 293.77 626.335C298.384 630.715 314.028 677.316 310.08 683.639L309.129 683.181C301.708 671.996 291.915 645.173 287.352 631.684L291.033 626.047Z"/><path fill="#605650" transform="scale(0.793403 0.793527)" d="M346.882 558.337C349.761 560.571 359.506 574.193 363.095 578.365C371.28 587.878 379.933 596.413 388.427 605.627C390.324 607.684 389.793 609.724 389.433 612.376C386.733 610.198 383.803 608.803 380.373 605.929C369.427 596.759 360.299 585.475 352.018 573.903C348.42 568.875 345.754 564.471 346.882 558.337Z"/><path fill="#605650" transform="scale(0.793403 0.793527)" d="M328.065 565.607C329.953 566.98 344.033 585.378 345.875 588.345C350.076 595.11 377.196 619.089 378.317 623.614C365.316 624.062 337.177 587.393 331.732 576.021C330.488 573.422 328.944 568.54 328.065 565.607Z"/><path fill="#605650" transform="scale(0.793403 0.793527)" d="M302.621 614.676C304.67 614.829 305.662 614.496 307.029 616.239C313.049 623.918 331.005 652.81 330.868 661.625C322.857 655.719 303.009 624.338 302.621 614.676Z"/><path fill="#605650" transform="scale(0.793403 0.793527)" d="M311.246 596.312C311.631 596.45 312.522 596.739 312.738 597.099C317.475 604.973 344.587 637.216 344.501 643.504C329.8 632.808 319.215 619.063 311.278 602.511C309.812 599.456 310.149 598.83 311.246 596.312Z"/><path fill="#605650" transform="scale(0.793403 0.793527)" d="M418.385 527.154C419.461 527.485 420.527 527.85 421.603 528.177C421.845 528.251 422.09 528.317 422.332 528.392C424.953 529.202 456.058 547.6 456.974 549.298C444.54 550.884 427.511 541.074 418.878 532.402C417.651 531.17 418.238 528.774 418.385 527.154Z"/><path fill="#605650" transform="scale(0.793403 0.793527)" d="M440.071 517.916C445.547 520.621 466.822 529.789 469.572 533.537L469.369 534.572C462.856 537.603 442.216 527.924 436.499 523.712L437.287 521.851C438.237 519.612 438.152 519.295 440.071 517.916Z"/><path fill="#605650" transform="scale(0.793403 0.793527)" d="M366.796 553.954C368.724 554.822 378.676 565.14 380.624 567.523C385.829 573.892 405.289 588.181 408.442 594.133C397.898 593.044 380.395 572.207 374.066 564.36C372.021 561.824 367.597 556.937 366.796 553.954Z"/><path fill="#605650" transform="scale(0.793403 0.793527)" d="M384.088 546.112C385.365 546.224 386.628 546.4 387.647 547.296C397.284 555.762 406.573 564.651 416.626 572.64C418.978 574.51 422.431 576.62 424.33 578.827C414.858 579.116 401.223 565.645 395.001 559.049C392.574 556.477 385.337 549.108 384.088 546.112Z"/><path fill="#605650" transform="scale(0.793403 0.793527)" d="M411.478 504.08C415.083 505.184 418.61 506.528 422.035 508.103C425.508 509.682 439.084 515.3 440.071 517.916C438.152 519.295 438.237 519.612 437.287 521.851L436.499 523.712C429.082 511.484 421.63 513.438 411.478 504.08Z"/><path fill="#73655E" transform="scale(0.793403 0.793527)" d="M856.304 107.033C897.285 96.47 940.012 84.2352 976.755 62.9089C987.505 56.6695 996.459 49.7131 1006.33 42.3528C1002.48 65.4889 982.113 73.0852 963.703 82.9909C974.973 80.6933 986.214 78.2522 997.422 75.668C1007.88 73.1583 1018.14 70.2176 1028.69 68.1358C1012.71 85.8697 996.321 87.0807 976.209 95.487C990.545 93.4387 1020.25 88.4014 1033.31 91.1398C1021.25 99.4735 1005.96 102.877 991.804 106.79C997.494 106.442 1009.69 106.358 1014.78 108.426L1015.6 109.31C1013.53 114.569 993.302 118.906 988.851 121.422L988.681 122.102C986.412 130.864 972.139 134.529 965.932 138.685C964.882 139.388 961.54 148.668 958.505 149.532C954.371 153.012 946.055 155.513 942.818 158.157L942.655 158.85C940.594 167.297 924.402 176.179 916.347 176.796C911.569 186.507 906.608 189.397 896.324 192.919L894.432 193.557L894.414 194.468C889.195 204.236 877.616 208.253 867.136 208.869C865.767 213.593 863.136 216.708 858.974 219.457C856.198 221.29 849.288 222.046 847.824 223.075C843.542 226.085 842.157 231.059 835.95 232.592C833.443 233.211 827.916 233.269 825.852 234C824.815 234.368 824.241 237.77 822.353 239.574C819.953 242.668 817.214 243.467 813.652 244.805C805.716 256.308 804.339 250.24 797.069 255.11C794.273 256.982 796.567 262.809 784.237 265.033C782.522 265.342 780.797 265.59 779.064 265.774C776.455 275.164 773.069 277.845 763.939 280.274C760.957 289.329 757.743 292 748.457 294.075C745.193 303.123 741.363 307.666 731.931 310.101C728.582 318.765 727.35 322.736 717.261 321.395C713.45 330.478 711.213 332.851 701.454 335.294C697.788 343.586 694.507 346.654 684.98 346.742C683.879 348.827 682.899 351.114 681.22 352.692C677.883 357.344 673.624 356.917 668.451 355.933C665.553 361.946 664.08 366.649 656.456 366.22L654.563 366.121C653.228 376.92 652.643 382.162 642.533 387.855C639.952 385.71 629.648 370.565 626.287 366.871C621.308 361.4 615.996 356.445 610.931 351.13C601.838 341.905 586.43 331.029 576.212 322.449C569.327 316.668 562.372 309.775 555.826 303.545C551.667 299.1 546.661 295.629 542.5 290.815L542.017 290.249L541.015 290.328C538.943 288.469 537.172 286.985 534.987 285.26C534.005 282.919 532.297 279.892 532.713 277.676C529.192 270.824 535.731 268.28 534.841 264.674C553.299 259.703 581.096 237.476 596.968 226.88C614.058 215.472 630.395 205.055 646.817 192.72C657.812 184.462 678.462 166.184 689.605 160.435C710.985 149.404 742.755 144.375 765.99 136.514C776.599 132.924 786.478 129.11 796.916 125.161C801.902 123.275 812.463 119.012 817.367 118.487C830.345 113.726 842.897 110.267 856.304 107.033Z"/><path fill="#605650" transform="scale(0.793403 0.793527)" d="M856.304 107.033C897.285 96.47 940.012 84.2352 976.755 62.9089C987.505 56.6695 996.459 49.7131 1006.33 42.3528C1002.48 65.4889 982.113 73.0852 963.703 82.9909C974.973 80.6933 986.214 78.2522 997.422 75.668C1007.88 73.1583 1018.14 70.2176 1028.69 68.1358C1012.71 85.8697 996.321 87.0807 976.209 95.487C990.545 93.4387 1020.25 88.4014 1033.31 91.1398C1021.25 99.4735 1005.96 102.877 991.804 106.79C997.494 106.442 1009.69 106.358 1014.78 108.426L1015.6 109.31C1013.53 114.569 993.302 118.906 988.851 121.422L988.681 122.102C986.412 130.864 972.139 134.529 965.932 138.685C964.882 139.388 961.54 148.668 958.505 149.532C954.371 153.012 946.055 155.513 942.818 158.157L942.655 158.85C940.594 167.297 924.402 176.179 916.347 176.796C911.569 186.507 906.608 189.397 896.324 192.919L894.432 193.557L894.414 194.468C881.678 196.722 871.546 192.908 859.605 190.081C854.082 188.774 826.062 178.64 822.854 179.99C824.096 183.791 864.116 199.99 865.964 207.313C862.803 209.969 854.567 206.202 853.003 206.612C857.94 209.048 863.374 208.775 865.449 210.05C864.307 215.424 853.623 222.491 848.244 221.346C846.523 219.699 847.042 220.096 846.291 217.46L845.703 217.221C845.574 219.65 847.023 218.853 846.457 221.963C839.986 224.213 800.82 194.739 793.61 189.115C800.314 189.017 802.239 189.273 808.199 186.396C813.864 178.754 811.739 175.59 805.507 169.451C815.743 169.196 836.163 164.145 832.699 150.113C836.006 148.58 844.042 145.486 844.028 141.289C843.997 132.409 857.521 135.575 854.27 125.102C853.962 124.109 859.951 119.205 861.344 117.44C859.564 114.02 857.883 110.55 856.304 107.033Z"/><path fill="#73655E" transform="scale(0.793403 0.793527)" d="M843.685 171.576C867.547 171.465 891.836 181.005 916.347 176.796C911.569 186.507 906.608 189.397 896.324 192.919L894.432 193.557C893.802 191.638 893.144 190.513 891.289 189.602C883.175 185.717 874.271 183.341 865.77 180.347C858.2 177.681 851.074 174.734 843.685 171.576Z"/><path fill="#605650" transform="scale(0.793403 0.793527)" d="M762.729 200.317C766.146 201.126 775.277 204.037 775.646 198.454C773.869 193.869 771.182 193.543 768.121 190.58L768.961 190.285C772.392 191.02 774.746 193.533 777.68 194.472C794.813 199.923 810.713 210.069 822.013 224.132C828.018 231.605 823.266 232.389 822.353 239.574C819.953 242.668 817.214 243.467 813.652 244.805C805.716 256.308 804.339 250.24 797.069 255.11C794.273 256.982 796.567 262.809 784.237 265.033C782.522 265.342 780.797 265.59 779.064 265.774C776.455 275.164 773.069 277.845 763.939 280.274C760.957 289.329 757.743 292 748.457 294.075C745.193 303.123 741.363 307.666 731.931 310.101C728.582 318.765 727.35 322.736 717.261 321.395C713.45 330.478 711.213 332.851 701.454 335.294C697.788 343.586 694.507 346.654 684.98 346.742C683.879 348.827 682.899 351.114 681.22 352.692C681.323 349.634 683.714 347.354 684.38 344.754C686.155 337.812 685.163 323.144 679.712 318.038C682.613 318.721 686.425 319.306 689.051 317.895C693.665 315.417 690.491 306.78 696.947 305.871C698.305 305.68 701.319 304.206 702.661 303.504L703.329 303.151C704.41 300.842 704.806 299.822 705.466 297.456C706.146 295.018 705.058 290.162 706.825 289.241C712.289 286.39 711.412 288.348 715.896 283.584C718.872 263.238 710.559 266.319 701.74 253.347L701.325 252.729C702.837 248.446 704.037 246.543 706.393 242.597C707.147 243.016 707.894 243.448 708.635 243.891C717.572 249.254 721.816 253.5 724.225 263.279C725.823 261.865 725.837 257.079 725.919 254.959C735.046 249.328 746.935 244.683 732.356 234.451C736.302 234.264 745.402 233.468 747.42 229.938C746.33 225.336 735.224 222.135 731.824 218.518C731.757 218.492 731.691 218.465 731.625 218.439C733.41 216.135 745.088 222.619 751.039 219.027C753.329 218.415 752.955 215.892 754.317 215.017C761.525 210.383 768.295 211.338 762.729 200.317Z"/><path fill="#605650" transform="scale(0.793403 0.793527)" d="M623.418 305.317C636.233 303.474 635.302 301.533 635.546 288.941C643.897 299.241 643.401 319.185 652.651 330.578C666.197 347.263 676.321 335.148 678.682 318.734L679.712 318.038C685.163 323.144 686.155 337.812 684.38 344.754C683.714 347.354 681.323 349.634 681.22 352.692C677.883 357.344 673.624 356.917 668.451 355.933C665.553 361.946 664.08 366.649 656.456 366.22L654.563 366.121C653.228 376.92 652.643 382.162 642.533 387.855C639.952 385.71 629.648 370.565 626.287 366.871C621.308 361.4 615.996 356.445 610.931 351.13C612.175 349.917 614.448 348.993 615.926 347.936C623.93 342.209 620.569 337.307 616.003 331.174C632.736 328.844 633.215 316.278 623.418 305.317Z"/><path fill="#DDD5BA" transform="scale(0.793403 0.793527)" d="M534.841 264.674C553.299 259.703 581.096 237.476 596.968 226.88C614.058 215.472 630.395 205.055 646.817 192.72C657.812 184.462 678.462 166.184 689.605 160.435C710.985 149.404 742.755 144.375 765.99 136.514C776.599 132.924 786.478 129.11 796.916 125.161C801.902 123.275 812.463 119.012 817.367 118.487C798.975 129.777 785.364 132.644 765.309 139.662C738.721 149.528 711.584 158.622 685.361 169.352C679.984 171.551 668.538 181.625 663.476 185.52C632.534 209.321 600.445 231.375 568.543 253.846C556.759 262.146 544.371 268.824 532.713 277.676C529.192 270.824 535.731 268.28 534.841 264.674Z"/><path fill="#605650" transform="scale(0.793403 0.793527)" d="M696.978 257.123C697.807 257.373 698.595 257.746 699.314 258.229C707.152 263.492 717.236 276.718 710.304 286.08C705.912 284.453 697.942 270.895 694.511 266.417L696.978 257.123Z"/><path fill="#DDD5BA" transform="scale(0.793403 0.793527)" d="M526.49 282.103C529.055 283.837 531.988 284.427 534.987 285.26C537.172 286.985 538.943 288.469 541.015 290.328L542.017 290.249L542.5 290.815C546.661 295.629 551.667 299.1 555.826 303.545C562.372 309.775 569.327 316.668 576.212 322.449C586.43 331.029 601.838 341.905 610.931 351.13C615.996 356.445 621.308 361.4 626.287 366.871C629.648 370.565 639.952 385.71 642.533 387.855C643.332 390.252 644.595 391.832 646.013 393.923C647.726 396.641 651.51 403.001 652.361 406.038C653.893 409.673 655.662 414.519 657.703 417.72C662.824 423.09 667.526 430.797 672.618 436.71C683.336 439.168 721.386 452.377 722.505 464.271C721.589 466.805 720.941 466.497 718.329 466.233L717.596 466.341L716.848 467.163C718.64 469.935 720.304 472.466 720.282 475.889C718.785 478.946 717.013 478.489 713.99 478.052C715.288 480.816 716.586 482.957 716.547 485.969C714.742 488.513 712.99 487.786 710.134 487.485C711.032 489.539 711.983 491.638 712.813 493.715C713.885 497.51 715.795 501.706 710.725 503.174L710.693 506.852L711.345 507.703C709.86 509.153 708.381 508.437 707.467 510.116C706.062 512.697 706.654 516.698 706.93 519.558C704.76 517.911 701.876 515.844 699.866 514.112C697.576 511.524 694.91 509.295 691.956 507.501C688.301 502.996 686.128 500.744 681.643 497.097C678.539 506.608 673.032 505.143 664.069 505.002C665.698 508.302 667.485 512.552 667.379 516.327C668.381 520.316 668.955 522.907 672.208 525.755C671.004 528.812 667.036 527.271 664.181 526.731C657.928 528.76 656.163 524.294 652.002 526.196C651.627 527.66 651.709 527.615 650.79 528.789C646.758 529.557 642.954 526.837 639.395 524.856L638.889 524.591C638.875 523.896 638.844 523.262 638.802 522.568L638.107 522.811C636.079 522.502 634.107 521.086 632.276 520.003C629.314 522.207 627.49 522.024 625.243 525.053C618.782 519.779 610.778 511.567 607.869 503.687L606.441 501.744C590.559 495.551 579.914 488.573 564.617 481.342C558.686 479.707 545.688 473.721 537.735 471.245C526.701 466.862 512.54 457.949 502.751 451.531C484.674 438.807 458.892 415.329 446.731 396.69C442.634 392.165 438.27 385.063 435.049 379.884C436.51 379.946 438.951 380.668 440.575 380.905C457.718 383.403 475.147 375.931 489.585 366.782C511.826 352.691 528.161 324.572 528.898 298.031C529.048 292.628 527.247 288.027 526.596 282.976L526.49 282.103Z"/><path fill="#BCAA93" transform="scale(0.793403 0.793527)" d="M446.731 396.69C451.171 398.518 455.034 402.255 459.21 404.138C468.836 408.479 483.066 410.054 493.229 406.601C496.265 405.465 498.419 403.101 500.461 400.756C505.261 404.468 511.175 408.745 517.201 409.689C528.102 411.399 534.23 419.148 544.027 422.87C548.835 424.696 555.089 422.723 559.599 426.255C565.756 429.899 572.331 436.046 579.221 437.753C580.286 438.017 581.621 434.89 581.981 434.094C585.083 433.386 596.102 439.42 599.159 441.272C601.95 442.814 604.749 444.342 607.555 445.856C605.876 443.086 604.768 441.177 603.388 438.261C605.459 438.812 625.442 447.386 626.24 447.976C623.604 451.461 619.33 454.983 619.63 459.654C619.841 462.948 623.055 466.349 621.873 469.112C617.891 472.176 608.958 473.144 604.057 473.308C610.959 476.52 617.445 477.688 624.42 481.059C605.914 487.529 592.975 480.591 574.318 481.178C571.568 481.265 567.207 480.9 564.617 481.342C558.686 479.707 545.688 473.721 537.735 471.245C526.701 466.862 512.54 457.949 502.751 451.531C484.674 438.807 458.892 415.329 446.731 396.69Z"/><defs><linearGradient id="gradient_0" gradientUnits="userSpaceOnUse" x1="703.85974" y1="434.82016" x2="645.54401" y2="472.05789"><stop offset="0" stop-color="#CFC1A4"/><stop offset="1" stop-color="#F6F7E8"/></linearGradient></defs><path fill="url(#gradient_0)" transform="scale(0.793403 0.793527)" d="M657.703 417.72C662.824 423.09 667.526 430.797 672.618 436.71C683.336 439.168 721.386 452.377 722.505 464.271C721.589 466.805 720.941 466.497 718.329 466.233L717.596 466.341L716.848 467.163C718.64 469.935 720.304 472.466 720.282 475.889C718.785 478.946 717.013 478.489 713.99 478.052C715.288 480.816 716.586 482.957 716.547 485.969C714.742 488.513 712.99 487.786 710.134 487.485C711.032 489.539 711.983 491.638 712.813 493.715C713.885 497.51 715.795 501.706 710.725 503.174L710.693 506.852L711.345 507.703C709.86 509.153 708.381 508.437 707.467 510.116C706.062 512.697 706.654 516.698 706.93 519.558C704.76 517.911 701.876 515.844 699.866 514.112C697.576 511.524 694.91 509.295 691.956 507.501C688.301 502.996 686.128 500.744 681.643 497.097C677.987 491.197 671.95 486.188 667.089 480.94C666.239 478.585 665.648 476.145 665.004 473.723C655.571 469.339 652.145 466.48 646.967 457.462C640.539 454.809 631.716 452.078 628.046 446.172C632.125 442.959 632.244 442.814 637.383 442.295L638.892 441.788L644.016 440.896C648.253 439.228 649.977 438.448 653.089 435.019L654.678 431.62L654.931 430.997C656.634 426.88 656.642 422.356 657.703 417.72Z"/><path fill="#7B716A" transform="scale(0.793403 0.793527)" d="M678.541 441.201C687.024 444.203 717.446 456.835 718.329 466.233L717.596 466.341L716.848 467.163C718.64 469.935 720.304 472.466 720.282 475.889C718.785 478.946 717.013 478.489 713.99 478.052C715.288 480.816 716.586 482.957 716.547 485.969C714.742 488.513 712.99 487.786 710.134 487.485C711.032 489.539 711.983 491.638 712.813 493.715C713.885 497.51 715.795 501.706 710.725 503.174L710.693 506.852C708.982 504.847 707.771 503.18 705.582 501.706L704.153 500.004C704.005 498.247 704.009 497.102 704.038 495.334L704.869 494.689C705.997 495.191 706.024 495.266 707.054 495.939C704.94 489.963 701.566 488.785 699.982 484.5C700.464 481.377 700.291 480.231 700.037 477.098C697.186 462.615 687.768 452.053 678.541 441.201Z"/><path fill="#BCAA93" transform="scale(0.793403 0.793527)" d="M708.869 471.992C711.552 472.73 713.214 474.906 714.899 477.108L714.904 477.519L713.99 478.052C715.288 480.816 716.586 482.957 716.547 485.969C714.742 488.513 712.99 487.786 710.134 487.485C711.032 489.539 711.983 491.638 712.813 493.715C713.885 497.51 715.795 501.706 710.725 503.174L710.693 506.852C708.982 504.847 707.771 503.18 705.582 501.706L704.153 500.004C704.005 498.247 704.009 497.102 704.038 495.334L704.869 494.689C705.997 495.191 706.024 495.266 707.054 495.939C704.94 489.963 701.566 488.785 699.982 484.5C700.464 481.377 700.291 480.231 700.037 477.098C700.733 476.473 702.453 475.335 703.297 474.744L703.458 474.228C707.921 475.491 707.919 476.205 713.507 477.253L708.869 471.992Z"/><path fill="#73655E" transform="scale(0.793403 0.793527)" d="M703.297 474.744C704.939 477.799 709.858 484.72 709.664 487.296L706.98 487.703C705.475 489.901 707.303 492.218 707.825 494.781L707.054 495.939C704.94 489.963 701.566 488.785 699.982 484.5C700.464 481.377 700.291 480.231 700.037 477.098C700.733 476.473 702.453 475.335 703.297 474.744Z"/><path fill="#D2877D" transform="scale(0.793403 0.793527)" d="M704.153 500.004C704.005 498.247 704.009 497.102 704.038 495.334L704.869 494.689C705.997 495.191 706.024 495.266 707.054 495.939L707.825 494.781L708.184 495.106C708.95 497.85 709.831 500.472 710.725 503.174L710.693 506.852C708.982 504.847 707.771 503.18 705.582 501.706L704.153 500.004Z"/><path fill="#DDD5BA" transform="scale(0.793403 0.793527)" d="M702.28 464.881C706.853 464.996 712.942 465.833 717.596 466.341L716.848 467.163C718.64 469.935 720.304 472.466 720.282 475.889C718.785 478.946 717.013 478.489 713.99 478.052L714.904 477.519L714.899 477.108C713.214 474.906 711.552 472.73 708.869 471.992C705.848 469.38 704.801 468.043 702.28 464.881Z"/><path fill="#9E5D55" transform="scale(0.793403 0.793527)" d="M667.089 480.94C673.467 475.57 686.323 484.889 692.241 488.592C694.414 487.172 696.893 485.733 699.132 484.331L699.982 484.5C701.566 488.785 704.94 489.963 707.054 495.939C706.024 495.266 705.997 495.191 704.869 494.689L704.038 495.334C704.009 497.102 704.005 498.247 704.153 500.004L705.582 501.706C707.771 503.18 708.982 504.847 710.693 506.852L711.345 507.703C709.86 509.153 708.381 508.437 707.467 510.116C706.062 512.697 706.654 516.698 706.93 519.558C704.76 517.911 701.876 515.844 699.866 514.112C697.576 511.524 694.91 509.295 691.956 507.501C688.301 502.996 686.128 500.744 681.643 497.097C677.987 491.197 671.95 486.188 667.089 480.94Z"/><path fill="#CC7470" transform="scale(0.793403 0.793527)" d="M699.132 484.331L699.982 484.5C701.566 488.785 704.94 489.963 707.054 495.939C706.024 495.266 705.997 495.191 704.869 494.689L704.038 495.334C704.009 497.102 704.005 498.247 704.153 500.004C700.462 496.069 696.492 492.406 692.272 489.045L692.241 488.592C694.414 487.172 696.893 485.733 699.132 484.331Z"/><path fill="#82524C" transform="scale(0.793403 0.793527)" d="M705.582 501.706C703.525 502.534 689.802 493.373 690.564 489.615L692.272 489.045C696.492 492.406 700.462 496.069 704.153 500.004L705.582 501.706Z"/><path fill="#D2877D" transform="scale(0.793403 0.793527)" d="M666.093 451.463C672.371 462.152 688.692 477.894 699.132 484.331C696.893 485.733 694.414 487.172 692.241 488.592C686.323 484.889 673.467 475.57 667.089 480.94C666.239 478.585 665.648 476.145 665.004 473.723C664.506 466.106 664.101 463.457 661.42 456.166C664.996 454.112 665.242 456.159 666.093 451.463Z"/><path fill="#CC7470" transform="scale(0.793403 0.793527)" d="M656.273 434.28C660.732 440.614 662.795 444.632 666.093 451.463C665.242 456.159 664.996 454.112 661.42 456.166C660.624 454.34 656.35 448.834 656.399 448.484C656.993 444.274 656.901 438.651 656.273 434.28Z"/><path fill="#8C8175" transform="scale(0.793403 0.793527)" d="M555.826 303.545C562.372 309.775 569.327 316.668 576.212 322.449C586.43 331.029 601.838 341.905 610.931 351.13C615.996 356.445 621.308 361.4 626.287 366.871C629.648 370.565 639.952 385.71 642.533 387.855C643.332 390.252 644.595 391.832 646.013 393.923C647.726 396.641 651.51 403.001 652.361 406.038C653.893 409.673 655.662 414.519 657.703 417.72C656.642 422.356 656.634 426.88 654.931 430.997L654.678 431.62L653.089 435.019C649.977 438.448 648.253 439.228 644.016 440.896L638.892 441.788L637.383 442.295C630.226 442.143 616.678 437.076 611.276 432.419C595.486 421.697 597.84 417.298 587.779 404.6C591.68 401.009 593.24 400.262 598.264 398.524C603.613 401.512 604.842 402.686 610.432 399.665C616.253 393.398 617.728 390.042 620.342 382.138L620.288 381.437C617.764 381.474 617.001 381.549 615.015 380.171L614.624 381.356C613.951 380.478 613.299 380.215 612.33 379.593C614.089 370.777 613.483 357.833 606.094 351.545L605.521 351.725L605.817 353.705L604.998 354.359L604.284 351.748C602.825 346.324 599.45 345.461 594.752 343.463C596.654 349.931 598.294 364.898 591.976 369.23L591.99 369.224C594.762 356.766 596.664 345.787 586.114 336.508C586.23 338.968 587.005 346.336 585.012 347.655C584.254 345.548 583.818 337.819 583.129 334.152C580.831 331.989 576.928 329.026 574.381 326.966C575.926 336.175 575.838 337.988 572.991 346.962C571.268 334.223 576.105 328.738 564.348 319.165C565.149 328.969 565.578 332.332 559.419 340.12C564.443 326.357 564.638 318.548 553.387 308.399C553.438 311.483 553.59 313.769 552.985 316.806C552.598 314.153 552.265 308.842 553.009 306.25C553.546 304.38 554.237 304.401 555.826 303.545Z"/><path fill="#7B716A" transform="scale(0.793403 0.793527)" d="M616.464 425.636C617.461 424.683 620.247 423.056 621.595 422.06C625.489 419.181 628.513 416.683 631.951 413.246C631.799 412.307 631.694 412.154 631.245 411.342C634.846 411.488 636.63 406.778 637.845 403.589L637.22 402.393C640.568 397.983 641.09 399.31 643.729 393.002L646.013 393.923C647.726 396.641 651.51 403.001 652.361 406.038C653.893 409.673 655.662 414.519 657.703 417.72C656.642 422.356 656.634 426.88 654.931 430.997L654.678 431.62L653.089 435.019C649.977 438.448 648.253 439.228 644.016 440.896L638.892 441.788L637.383 442.295C630.226 442.143 616.678 437.076 611.276 432.419C613.152 431.612 615.07 431.244 615.832 429.791C614.199 430.054 614.059 430.224 612.527 429.555L612.319 428.624C613.521 426.615 614.158 426.596 616.464 425.636Z"/><path fill="#605650" transform="scale(0.793403 0.793527)" d="M633.541 412.855C635.424 409.738 641.74 398.082 644.332 397.338C645.911 401.415 640.491 410.827 637.735 413.919C633.49 418.195 628.662 423.201 623.52 426.351C621.437 427.626 617.488 428.537 615.832 429.791C614.199 430.054 614.059 430.224 612.527 429.555L612.319 428.624C613.521 426.615 614.158 426.596 616.464 425.636C622.572 424.085 629.546 417.542 633.541 412.855Z"/><defs><linearGradient id="gradient_1" gradientUnits="userSpaceOnUse" x1="657.11346" y1="421.05914" x2="648.83179" y2="418.06738"><stop offset="0" stop-color="#54453C"/><stop offset="1" stop-color="#6D5E57"/></linearGradient></defs><path fill="url(#gradient_1)" transform="scale(0.793403 0.793527)" d="M652.361 406.038C653.893 409.673 655.662 414.519 657.703 417.72C656.642 422.356 656.634 426.88 654.931 430.997L654.678 431.62C651.923 429.441 653.743 428.639 651.264 426.245C651.592 424.848 652.514 422.279 651.996 421.315L649.495 423.689C650.798 418.807 651.74 407.318 652.361 406.038Z"/><path fill="#605650" transform="scale(0.793403 0.793527)" d="M651.264 426.245C653.743 428.639 651.923 429.441 654.678 431.62L653.089 435.019C649.977 438.448 648.253 439.228 644.016 440.896L638.892 441.788C640.463 437.26 648.694 433.483 650.889 426.586L651.264 426.245Z"/><path fill="#73655E" transform="scale(0.793403 0.793527)" d="M644.016 440.896C643.809 439.492 643.68 439.391 644.213 438.046C646.83 435.365 649.326 433.242 653.089 435.019C649.977 438.448 648.253 439.228 644.016 440.896Z"/><path fill="#605650" transform="scale(0.793403 0.793527)" d="M649.495 423.689L651.996 421.315C652.514 422.279 651.592 424.848 651.264 426.245L650.889 426.586C649.679 426.614 649.265 427.06 647.602 427.221L648.61 426.932L647.35 426.262L649.495 423.689Z"/><path fill="#73655E" transform="scale(0.793403 0.793527)" d="M620.342 382.138L622.598 381.393C628.1 389.242 609.614 411.419 599.836 410.607L599.545 409.744C602.415 405.584 608.819 404.363 610.432 399.665C616.253 393.398 617.728 390.042 620.342 382.138Z"/><path fill="#DDD5BA" transform="scale(0.793403 0.793527)" d="M615.015 380.171C617.491 371.22 615.622 368.607 615.593 360.031C618.338 366.048 621.2 374.71 620.288 381.437C617.764 381.474 617.001 381.549 615.015 380.171Z"/><path fill="#605650" transform="scale(0.793403 0.793527)" d="M634.502 381.062L635.638 381.613C636.751 383.042 637.414 384.143 637.59 386.015C639.081 401.828 626.556 422.159 609.877 424.027L608.089 423.337L607.926 422.446C610.767 419.637 616.25 418.601 621.202 413.414C630.621 403.549 634.172 394.217 634.502 381.062Z"/><path fill="#605650" transform="scale(0.793403 0.793527)" d="M622.758 397.651C624.27 394.181 625.779 390.831 627.001 387.235C628.167 383.804 626.424 374.34 629.061 372.678C634.175 378.571 630.69 392.467 627.419 398.728C625.259 398.434 624.765 398.407 622.758 397.651Z"/><path fill="#73655E" transform="scale(0.793403 0.793527)" d="M627.419 398.728C624.833 403.613 614.423 418.079 608.015 415.675C608.011 415.322 608.006 414.969 608.002 414.615C611.124 411.759 615.321 407.96 618.011 404.936C620.268 402.398 621.393 400.31 622.758 397.651C624.765 398.407 625.259 398.434 627.419 398.728Z"/><path fill="#9E5D55" transform="scale(0.793403 0.793527)" d="M606.441 501.744C610.914 501.924 616.615 503.552 620.485 503.472C630.838 503.259 654.365 501.255 664.069 505.002C665.698 508.302 667.485 512.552 667.379 516.327C668.381 520.316 668.955 522.907 672.208 525.755C671.004 528.812 667.036 527.271 664.181 526.731C657.928 528.76 656.163 524.294 652.002 526.196C651.627 527.66 651.709 527.615 650.79 528.789C646.758 529.557 642.954 526.837 639.395 524.856L638.889 524.591C638.875 523.896 638.844 523.262 638.802 522.568L638.107 522.811C636.079 522.502 634.107 521.086 632.276 520.003C629.314 522.207 627.49 522.024 625.243 525.053C618.782 519.779 610.778 511.567 607.869 503.687L606.441 501.744Z"/><path fill="#BCAA93" transform="scale(0.793403 0.793527)" d="M607.869 503.687C614.952 509.863 618.646 512.413 627.254 516.426L632.276 520.003C629.314 522.207 627.49 522.024 625.243 525.053C618.782 519.779 610.778 511.567 607.869 503.687Z"/><path fill="#DDD5BA" transform="scale(0.793403 0.793527)" d="M637.815 518.117C645.889 520.419 656.578 525.063 664.181 526.731C657.928 528.76 656.163 524.294 652.002 526.196C651.627 527.66 651.709 527.615 650.79 528.789C646.758 529.557 642.954 526.837 639.395 524.856L638.889 524.591C638.875 523.896 638.844 523.262 638.802 522.568L637.815 518.117Z"/><path fill="#7B716A" transform="scale(0.793403 0.793527)" d="M627.254 516.426C631.626 516.153 633.593 517.052 637.815 518.117L638.802 522.568L638.107 522.811C636.079 522.502 634.107 521.086 632.276 520.003L627.254 516.426Z"/><defs><linearGradient id="gradient_2" gradientUnits="userSpaceOnUse" x1="609.36182" y1="371.84818" x2="589.99426" y2="375.64142"><stop offset="0" stop-color="#7E6A5C"/><stop offset="1" stop-color="#8A7F78"/></linearGradient></defs><path fill="url(#gradient_2)" transform="scale(0.793403 0.793527)" d="M604.998 354.359L605.817 353.705C612.017 369.683 605.152 384.812 590.808 393.295C600.302 382.193 606.779 375.128 605.64 359.65C605.517 357.877 605.302 356.111 604.998 354.359Z"/><path fill="#7B716A" transform="scale(0.793403 0.793527)" d="M541.015 290.328L542.017 290.249L542.5 290.815C546.661 295.629 551.667 299.1 555.826 303.545C554.237 304.401 553.546 304.38 553.009 306.25C552.265 308.842 552.598 314.153 552.985 316.806C552.55 318.261 552.934 317.681 551.885 318.664C550.718 315.933 551.121 311.817 550.358 308.792C548.879 302.93 544.244 295.448 541.015 290.328Z"/><path fill="#7B716A" transform="scale(0.793403 0.793527)" d="M612.33 379.593C613.299 380.215 613.951 380.478 614.624 381.356C612.813 386.406 607.653 396.76 602.33 398.69C601.959 397.003 608.635 388.042 609.684 385.681C610.516 383.808 611.519 381.635 612.33 379.593Z"/><path fill="#BCAA93" transform="scale(0.793403 0.793527)" d="M273.978 214.379C275.898 206.747 280.251 202.735 288.046 206.477C290.019 205.558 290.282 205.434 292.387 205.91C305.4 206.107 310.849 206.016 323.072 211.61C332.512 215.376 348.665 225.691 358.36 230.906L363.499 233.793C367.292 235.707 383.512 243.574 385.541 245.422C401.801 254.325 410.452 260.043 427.979 266.833C444.077 272.304 458.475 275.666 475.796 273.308C488.905 271.524 502.299 270.617 515.37 268.487C521.586 267.596 528.623 265.971 534.841 264.674C535.731 268.28 529.192 270.824 532.713 277.676C532.297 279.892 534.005 282.919 534.987 285.26C531.988 284.427 529.055 283.837 526.49 282.103L526.596 282.976C527.247 288.027 529.048 292.628 528.898 298.031C528.161 324.572 511.826 352.691 489.585 366.782C475.147 375.931 457.718 383.403 440.575 380.905C438.951 380.668 436.51 379.946 435.049 379.884C431.994 376.628 426.342 363.328 424.015 362.124L423.272 363.437L420.671 363.553C423.269 356.005 421.943 353.001 421.412 345.368C420.114 326.703 410.846 305.983 398.123 291.839C384.279 278.746 351.843 260.699 333.626 261.634C302.106 263.251 298.504 260.635 270.838 246.821C268.003 246.599 257.598 241.605 253.838 240.471C248.512 238.865 243.039 237.591 237.736 236.045C236.76 235.482 237.171 235.682 236.513 234.346C236.671 229.707 241.352 225.99 245.673 225.202C254.588 223.503 265.605 218.222 273.978 214.379Z"/><path fill="#73655E" transform="scale(0.793403 0.793527)" d="M273.978 214.379C275.898 206.747 280.251 202.735 288.046 206.477C290.019 205.558 290.282 205.434 292.387 205.91L291.505 206.736C291.655 208.74 291.721 209.357 292.196 211.296C294.309 214.957 296.458 218.596 298.645 222.214C298.691 228.812 295.73 235.076 297.268 238.163C300.7 241.491 313.356 244.868 318.249 245.58C324.04 246.424 328.832 246.043 334.638 247.689C343.637 251.116 353.293 254.733 361.913 258.903C383.088 269.146 391.211 280.047 415.847 276.624C410.904 281.244 410.05 280.254 405.344 283.641C403.178 285.199 401.612 289.733 398.123 291.839C384.279 278.746 351.843 260.699 333.626 261.634C302.106 263.251 298.504 260.635 270.838 246.821C268.003 246.599 257.598 241.605 253.838 240.471C248.512 238.865 243.039 237.591 237.736 236.045C236.76 235.482 237.171 235.682 236.513 234.346C236.671 229.707 241.352 225.99 245.673 225.202C254.588 223.503 265.605 218.222 273.978 214.379Z"/><path fill="#3B414E" transform="scale(0.793403 0.793527)" d="M273.978 214.379C275.898 206.747 280.251 202.735 288.046 206.477C290.019 205.558 290.282 205.434 292.387 205.91L291.505 206.736C291.655 208.74 291.721 209.357 292.196 211.296C291.114 216.457 289.71 221.895 289.765 227.176C289.791 229.685 291.617 233.881 291.341 235.553L290.863 236.052C288.384 238.69 287.767 242.4 286.43 243.554C282.189 244.665 273.791 245.766 270.838 246.821C268.003 246.599 257.598 241.605 253.838 240.471C248.512 238.865 243.039 237.591 237.736 236.045C236.76 235.482 237.171 235.682 236.513 234.346C236.671 229.707 241.352 225.99 245.673 225.202C254.588 223.503 265.605 218.222 273.978 214.379Z"/><path fill="#191819" transform="scale(0.793403 0.793527)" d="M237.736 236.045C236.76 235.482 237.171 235.682 236.513 234.346C236.671 229.707 241.352 225.99 245.673 225.202L246.903 227.261C249.685 226.904 250.016 228.022 251.502 230.283C255.526 231.633 263.313 230.45 267.813 231.088C278.517 232.608 280.01 237.878 291.341 235.553L290.863 236.052C288.384 238.69 287.767 242.4 286.43 243.554C282.189 244.665 273.791 245.766 270.838 246.821C268.003 246.599 257.598 241.605 253.838 240.471C248.512 238.865 243.039 237.591 237.736 236.045Z"/><path fill="#7B716A" transform="scale(0.793403 0.793527)" d="M237.736 236.045C236.76 235.482 237.171 235.682 236.513 234.346C236.671 229.707 241.352 225.99 245.673 225.202L246.903 227.261C246.444 230.888 240.71 234.033 237.736 236.045Z"/><path fill="#3B414E" transform="scale(0.793403 0.793527)" d="M256.288 233.632C262.027 233.113 277.627 236.137 281.934 238.913C275.978 241.212 262.16 236.13 256.288 233.632Z"/><path fill="#DDD5BA" transform="scale(0.793403 0.793527)" d="M288.046 206.477C290.019 205.558 290.282 205.434 292.387 205.91L291.505 206.736C291.655 208.74 291.721 209.357 292.196 211.296C291.114 216.457 289.71 221.895 289.765 227.176C289.791 229.685 291.617 233.881 291.341 235.553C281.898 228.618 292.304 213.06 288.046 206.477Z"/><path fill="#191819" transform="scale(0.793403 0.793527)" d="M266.337 221.506C267.993 221.843 267.368 221.438 268.394 222.543C267.387 225.1 263.675 225.886 261.235 226.622C260.221 226.663 260.375 226.585 259.348 226.274L259.541 225.222C261.598 223.395 263.818 222.609 266.337 221.506Z"/><path fill="#8C8175" transform="scale(0.793403 0.793527)" d="M534.841 264.674C535.731 268.28 529.192 270.824 532.713 277.676C532.297 279.892 534.005 282.919 534.987 285.26C531.988 284.427 529.055 283.837 526.49 282.103C525.35 279.777 516.059 270.602 515.37 268.487C521.586 267.596 528.623 265.971 534.841 264.674Z"/><defs><linearGradient id="gradient_3" gradientUnits="userSpaceOnUse" x1="336.56912" y1="225.91943" x2="338.95477" y2="217.32149"><stop offset="0" stop-color="#685946"/><stop offset="1" stop-color="#8D796D"/></linearGradient></defs><path fill="url(#gradient_3)" transform="scale(0.793403 0.793527)" d="M323.072 211.61C332.512 215.376 348.665 225.691 358.36 230.906L355.669 231.891L353.437 231.247C344.068 227.936 343.06 225.145 334.851 220.656C331.506 218.827 321.278 218.393 316.803 217.953L316.609 217.16C317.497 214.432 320.651 212.885 323.072 211.61Z"/><path fill="#605650" transform="scale(0.793403 0.793527)" d="M385.541 245.422C401.801 254.325 410.452 260.043 427.979 266.833L427.833 267.386L426.878 267.822C421.557 267.537 386.902 248.902 385.541 245.422Z"/><path fill="#73655E" transform="scale(0.793403 0.793527)" d="M358.36 230.906L363.499 233.793C360.702 234.103 358.386 232.901 355.669 231.891L358.36 230.906Z"/><path fill="#191819" transform="scale(0.793403 0.793527)" d="M307.356 212.238C309.392 211.231 311.859 212 312.963 213.985C314.066 215.97 313.417 218.472 311.487 219.67C310.153 220.498 308.472 220.524 307.113 219.739C305.754 218.954 304.937 217.485 304.988 215.916C305.038 214.347 305.948 212.933 307.356 212.238Z"/><path fill="#7B716A" transform="scale(0.793403 0.793527)" d="M664.069 505.002C673.032 505.143 678.539 506.608 681.643 497.097C686.128 500.744 688.301 502.996 691.956 507.501C694.91 509.295 697.576 511.524 699.866 514.112C698.769 518.157 698.018 522.331 694.708 525.261C694.552 525.297 688.347 524.053 686.287 524.023L685.863 524.228C682.881 530.564 676.767 525.121 672.208 525.755C668.955 522.907 668.381 520.316 667.379 516.327C667.485 512.552 665.698 508.302 664.069 505.002Z"/><path fill="#DDD5BA" transform="scale(0.793403 0.793527)" d="M691.956 507.501C694.91 509.295 697.576 511.524 699.866 514.112C698.769 518.157 698.018 522.331 694.708 525.261C694.552 525.297 688.347 524.053 686.287 524.023L685.863 524.228C685.668 522.201 685.328 521.252 683.74 520.136L682.487 520.398C681.554 519.321 681.369 519.277 681.026 517.87C683.339 516.385 687.434 518.777 690.623 517.269C691.718 514.426 690.492 511.332 691.956 507.501Z"/><path fill="#BCAA93" transform="scale(0.793403 0.793527)" d="M667.379 516.327C671.054 518.201 677.507 521.996 681.421 521.792C682.269 521.022 682.076 521.384 682.487 520.398L683.74 520.136C685.328 521.252 685.668 522.201 685.863 524.228C682.881 530.564 676.767 525.121 672.208 525.755C668.955 522.907 668.381 520.316 667.379 516.327Z"/><path fill="#DDD5BA" transform="scale(0.793403 0.793527)" d="M632.276 520.003C634.107 521.086 636.079 522.502 638.107 522.811L638.802 522.568C638.844 523.262 638.875 523.896 638.889 524.591L639.395 524.856C639.645 526.665 639.683 527.016 639.56 528.825C635.953 532.631 628.757 527.344 625.243 525.053C627.49 522.024 629.314 522.207 632.276 520.003Z"/></svg>